# xmcd
#
# Track frame offsets:
#	150
#	17090
#	37154
#	56629
#	72672
#	98210
#	114165
#	130891
#	151633
#	167440
#	187665
#	206083
#	226974
#	246218
#
# Disc length: 3590 seconds
#
# Revision: 3930625292
# Processed by: cddbd v1.5.2PL0 Copyright (c) Steve Scherf et al.
# Submitted via: EZCDAudioConverter 8.0.2.1
#
DISCID=b40e040e
DTITLE=Various Artist - Top Hits 42. I'll Go This Way
DYEAR=2012
DGENRE=Contemporary Pop
TTITLE0=Tóc Tiên - Làm sao giữ được anh?
TTITLE1=Lam Anh - Nếu đã yêu
TTITLE2=Kỳ Phương Uyên - Tình yêu tàn phai
TTITLE3=Bảo Hân - I'll Go This Way
TTITLE4=Minh Tuyết - LK Mưa
TTITLE5=Tú Quyên - Tựa vào vai anh
TTITLE6=Lưu Bích - Tình phụ tôi
TTITLE7=Quỳnh Vi - Tình ngăn cách
TTITLE8=Như Loan - Em muốn tin anh
TTITLE9=Hồ Lệ Thu - Hững hờ
TTITLE10=Thủy Tiên - Voyage, Voyage
TTITLE11=Hợp Ca Thúy Nga Paris - Cát bụi tình xa
TTITLE12=Diễm Sương - Tầm gửi
TTITLE13=Thanh Quỳnh - Vì trái tim ngây thơ
EXTD=
EXTT0=
EXTT1=
EXTT2=
EXTT3=
EXTT4=
EXTT5=
EXTT6=
EXTT7=
EXTT8=
EXTT9=
EXTT10=
EXTT11=
EXTT12=
EXTT13=
PLAYORDER=
